<svg width="153" height="60" viewBox="0 0 153 60" fill="none" xmlns="http://www.w3.org/2000/svg">
<path d="M145.294 56.5609H153V59.1904H142.037V45.0316H152.737V47.6611H145.294V50.7355H151.867V53.2841H145.294V56.5609Z" fill="#353D3F"/>
<path d="M132.466 59.1904V47.7015H127.936V45.0316H140.274V47.7015H135.743V59.1904H132.466Z" fill="#353D3F"/>
<path d="M121.485 59.4331C119.24 59.4331 116.974 58.7656 115.72 57.7947L116.833 55.327C118.026 56.1968 119.806 56.8036 121.505 56.8036C123.447 56.8036 124.236 56.1563 124.236 55.2866C124.236 52.6369 116.003 54.4573 116.003 49.1983C116.003 46.7913 117.945 44.7888 121.97 44.7888C123.75 44.7888 125.571 45.2136 126.885 46.0429L125.874 48.5308C124.559 47.7824 123.204 47.4183 121.95 47.4183C120.008 47.4183 119.26 48.1465 119.26 49.0365C119.26 51.6457 127.492 49.8456 127.492 55.0439C127.492 57.4104 125.53 59.4331 121.485 59.4331Z" fill="#353D3F"/>
<path d="M106.519 56.5609H114.225V59.1904H103.262V45.0316H113.962V47.6611H106.519V50.7355H113.093V53.2841H106.519V56.5609Z" fill="#353D3F"/>
<path d="M93.6828 46.9127L96.4134 44H99.8115L96.1504 46.9127H93.6828Z" fill="#353D3F"/>
<path d="M74.4233 59.1904V45.0316H80.8555C85.4874 45.0316 88.663 47.8229 88.663 52.111C88.663 56.3991 85.4874 59.1904 80.8555 59.1904H74.4233ZM77.7001 56.5002H80.6937C83.5052 56.5002 85.3458 54.8214 85.3458 52.111C85.3458 49.4006 83.5052 47.7217 80.6937 47.7217H77.7001V56.5002Z" fill="#353D3F"/>
<path d="M60.7816 59.3117C58.6578 59.3117 56.5744 58.5633 55.5226 57.4711L56.1092 56.3181C57.1206 57.3093 58.9207 58.0374 60.7816 58.0374C63.4313 58.0374 64.5843 56.9249 64.5843 55.5293C64.5843 51.6457 55.8665 54.0325 55.8665 48.7938C55.8665 46.7104 57.4846 44.9102 61.085 44.9102C62.6829 44.9102 64.3415 45.3754 65.4742 46.1643L64.9686 47.3577C63.755 46.5688 62.3391 46.1845 61.085 46.1845C58.496 46.1845 57.3431 47.3374 57.3431 48.7533C57.3431 52.6369 66.0608 50.2905 66.0608 55.4484C66.0608 57.5317 64.4022 59.3117 60.7816 59.3117Z" fill="#353D3F"/>
<path d="M52.9579 59.1904L51.2589 55.4079H43.3704L41.6714 59.1904H40.1139L46.5865 45.0316H48.0631L54.5356 59.1904H52.9579ZM43.9166 54.1943H50.7128L47.3147 46.589L43.9166 54.1943Z" fill="#353D3F"/>
<path d="M33.8389 59.3117C31.715 59.3117 29.6317 58.5633 28.5799 57.4711L29.1665 56.3181C30.1778 57.3093 31.978 58.0374 33.8389 58.0374C36.4886 58.0374 37.6415 56.9249 37.6415 55.5293C37.6415 51.6457 28.9237 54.0325 28.9237 48.7938C28.9237 46.7104 30.5419 44.9102 34.1423 44.9102C35.7402 44.9102 37.3988 45.3754 38.5315 46.1643L38.0258 47.3577C36.8122 46.5688 35.3963 46.1845 34.1423 46.1845C31.5532 46.1845 30.4003 47.3374 30.4003 48.7533C30.4003 52.6369 39.1181 50.2905 39.1181 55.4484C39.1181 57.5317 37.4595 59.3117 33.8389 59.3117Z" fill="#353D3F"/>
<path d="M26.0152 59.1904L24.3161 55.4079H16.4277L14.7286 59.1904H13.1711L19.6437 45.0316H21.1203L27.5929 59.1904H26.0152ZM16.9738 54.1943H23.77L20.3719 46.589L16.9738 54.1943Z" fill="#353D3F"/>
<path d="M7.40302 59.3117C3.15539 59.3117 0 56.2575 0 52.111C0 47.9645 3.15539 44.9102 7.42325 44.9102C9.48638 44.9102 11.3473 45.5979 12.6013 46.9733L11.6507 47.924C10.4977 46.7508 9.08185 46.2452 7.4637 46.2452C4.04537 46.2452 1.47656 48.7533 1.47656 52.111C1.47656 55.4686 4.04537 57.9767 7.4637 57.9767C9.08185 57.9767 10.4977 57.4711 11.6507 56.2777L12.6013 57.2283C11.3473 58.6038 9.48638 59.3117 7.40302 59.3117Z" fill="#353D3F"/>
<path d="M103.482 33.4349H49.9577V29.868L103.482 28.843V33.4349Z" fill="#C4AA85"/>
<path d="M103.482 21.9961L49.9577 25.891V22.3036L103.482 16.5637V21.9961Z" fill="#C4AA85"/>
<path d="M103.482 12.6278L49.9577 20.6226V17.0352L103.482 6.58039V12.6278Z" fill="#C4AA85"/>
<path d="M84.5815 6.10889L49.9576 15.0672V13.4068L84.5815 0V6.10889Z" fill="#C4AA85"/>
</svg>
